<svg xmlns="http://www.w3.org/2000/svg" viewBox="0 0 900 1200">
  <defs>
    <linearGradient id="g1" x1="0" y1="0" x2="0.4" y2="1">
      <stop offset="0%" stop-color="#f5f1e6"/>
      <stop offset="100%" stop-color="#ddd0b0"/>
    </linearGradient>
    <radialGradient id="g2" cx="50%" cy="45%" r="55%">
      <stop offset="0%" stop-color="#ede6cf" stop-opacity="0.7"/>
      <stop offset="100%" stop-color="#ede6cf" stop-opacity="0"/>
    </radialGradient>
  </defs>
  <rect width="900" height="1200" fill="url(#g1)"/>
  <rect width="900" height="1200" fill="url(#g2)"/>

  <!-- Left margin line -->
  <line x1="130" y1="90" x2="130" y2="1110" stroke="#82734c" stroke-width="0.6" opacity="0.18"/>

  <!-- Horizontal rulings -->
  <line x1="160" y1="120" x2="820" y2="120" stroke="#82734c" stroke-width="0.5" opacity="0.1"/>
  <line x1="160" y1="195" x2="820" y2="195" stroke="#82734c" stroke-width="0.5" opacity="0.1"/>
  <line x1="160" y1="270" x2="820" y2="270" stroke="#82734c" stroke-width="0.5" opacity="0.1"/>
  <line x1="160" y1="345" x2="820" y2="345" stroke="#82734c" stroke-width="0.5" opacity="0.1"/>
  <line x1="160" y1="420" x2="820" y2="420" stroke="#82734c" stroke-width="0.5" opacity="0.1"/>
  <line x1="160" y1="495" x2="820" y2="495" stroke="#82734c" stroke-width="0.5" opacity="0.1"/>
  <line x1="160" y1="570" x2="820" y2="570" stroke="#82734c" stroke-width="0.5" opacity="0.1"/>
  <line x1="160" y1="645" x2="820" y2="645" stroke="#82734c" stroke-width="0.5" opacity="0.1"/>
  <line x1="160" y1="720" x2="820" y2="720" stroke="#82734c" stroke-width="0.5" opacity="0.1"/>
  <line x1="160" y1="795" x2="820" y2="795" stroke="#82734c" stroke-width="0.5" opacity="0.1"/>
  <line x1="160" y1="870" x2="820" y2="870" stroke="#82734c" stroke-width="0.5" opacity="0.1"/>
  <line x1="160" y1="945" x2="820" y2="945" stroke="#82734c" stroke-width="0.5" opacity="0.1"/>
  <line x1="160" y1="1020" x2="820" y2="1020" stroke="#82734c" stroke-width="0.5" opacity="0.1"/>

  <!-- Top arc -->
  <path d="M 180 175 Q 450 100 720 175" fill="none" stroke="#82734c" stroke-width="0.9" stroke-linecap="round" opacity="0.25"/>
  <!-- Corner bracket -->
  <path d="M 800 70 L 860 70 L 860 130" fill="none" stroke="#82734c" stroke-width="0.8" opacity="0.28"/>
  <!-- Small accent circle -->
  <circle cx="770" cy="140" r="18" fill="none" stroke="#82734c" stroke-width="0.6" opacity="0.28"/>
  <circle cx="770" cy="140" r="4" fill="#82734c" opacity="0.38"/>

  <!-- Radial spokes from center (450, 580) -->
  <line x1="450" y1="580" x2="450" y2="285" stroke="#82734c" stroke-width="0.5" opacity="0.15"/>
  <line x1="450" y1="580" x2="748" y2="432" stroke="#82734c" stroke-width="0.5" opacity="0.15"/>
  <line x1="450" y1="580" x2="748" y2="728" stroke="#82734c" stroke-width="0.5" opacity="0.15"/>
  <line x1="450" y1="580" x2="450" y2="875" stroke="#82734c" stroke-width="0.5" opacity="0.15"/>
  <line x1="450" y1="580" x2="152" y2="728" stroke="#82734c" stroke-width="0.5" opacity="0.15"/>
  <line x1="450" y1="580" x2="152" y2="432" stroke="#82734c" stroke-width="0.5" opacity="0.15"/>

  <!-- Concentric circles at center -->
  <circle cx="450" cy="580" r="218" fill="none" stroke="#82734c" stroke-width="1.1" opacity="0.3"/>
  <circle cx="450" cy="580" r="148" fill="none" stroke="#82734c" stroke-width="0.8" opacity="0.25"/>
  <circle cx="450" cy="580" r="85" fill="none" stroke="#82734c" stroke-width="0.6" opacity="0.2"/>
  <circle cx="450" cy="580" r="36" fill="none" stroke="#82734c" stroke-width="0.5" opacity="0.18"/>
  <circle cx="450" cy="580" r="14" fill="none" stroke="#82734c" stroke-width="0.4" opacity="0.25"/>
  <circle cx="450" cy="580" r="7" fill="#82734c" opacity="0.62"/>

  <!-- Satellite nodes -->
  <circle cx="450" cy="285" r="5" fill="#82734c" opacity="0.45"/>
  <circle cx="450" cy="285" r="22" fill="none" stroke="#82734c" stroke-width="0.5" opacity="0.22"/>
  <circle cx="748" cy="432" r="4" fill="#82734c" opacity="0.4"/>
  <circle cx="748" cy="432" r="16" fill="none" stroke="#82734c" stroke-width="0.5" opacity="0.18"/>
  <circle cx="748" cy="728" r="4" fill="#82734c" opacity="0.4"/>
  <circle cx="748" cy="728" r="16" fill="none" stroke="#82734c" stroke-width="0.5" opacity="0.18"/>
  <circle cx="450" cy="875" r="5" fill="#82734c" opacity="0.45"/>
  <circle cx="450" cy="875" r="22" fill="none" stroke="#82734c" stroke-width="0.5" opacity="0.22"/>
  <circle cx="152" cy="728" r="4" fill="#82734c" opacity="0.4"/>
  <circle cx="152" cy="728" r="16" fill="none" stroke="#82734c" stroke-width="0.5" opacity="0.18"/>
  <circle cx="152" cy="432" r="4" fill="#82734c" opacity="0.4"/>
  <circle cx="152" cy="432" r="16" fill="none" stroke="#82734c" stroke-width="0.5" opacity="0.18"/>

  <!-- Inner crosshair for precision -->
  <line x1="450" y1="480" x2="450" y2="680" stroke="#82734c" stroke-width="0.4" opacity="0.14"/>
  <line x1="350" y1="580" x2="550" y2="580" stroke="#82734c" stroke-width="0.4" opacity="0.14"/>

  <!-- Lower curves (human dimension) -->
  <path d="M 90 960 Q 270 900 450 938 Q 630 975 810 920" fill="none" stroke="#82734c" stroke-width="1.1" stroke-linecap="round" opacity="0.3"/>
  <path d="M 90 990 Q 290 940 450 966 Q 610 992 810 950" fill="none" stroke="#82734c" stroke-width="0.65" stroke-linecap="round" opacity="0.2"/>

  <!-- Bottom text-like blocks -->
  <rect x="170" y="1065" width="190" height="3.5" rx="1.75" fill="#82734c" opacity="0.12"/>
  <rect x="170" y="1078" width="130" height="3.5" rx="1.75" fill="#82734c" opacity="0.09"/>
  <rect x="430" y="1065" width="210" height="3.5" rx="1.75" fill="#82734c" opacity="0.12"/>
  <rect x="430" y="1078" width="95" height="3.5" rx="1.75" fill="#82734c" opacity="0.09"/>

  <!-- Bottom-left corner accent -->
  <path d="M 50 1140 L 50 1170 L 80 1170" fill="none" stroke="#82734c" stroke-width="0.7" opacity="0.25"/>
</svg>
